P2
3 2
255 
76 149 225 
225 255 0 
